<?xml version="1.0" encoding="utf-8"?>
<!-- Generator: Adobe Illustrator 27.5.0, SVG Export Plug-In . SVG Version: 6.00 Build 0)  -->
<svg version="1.1" id="Layer_1" xmlns="http://www.w3.org/2000/svg" xmlns:xlink="http://www.w3.org/1999/xlink" x="0px" y="0px"
	 viewBox="0 0 24 24" style="enable-background:new 0 0 24 24;" xml:space="preserve">
<style type="text/css">
	.st0{fill:none;stroke:#D8D1D1;stroke-width:1.5;stroke-linecap:round;stroke-linejoin:round;}
</style>
<path class="st0" d="M18,18.7c-1.4-1.9-3.6-3-6-3c-2.4,0-4.6,1.1-6,3 M18,18.7c3.7-3.3,4-9,0.7-12.7S9.7,2,6,5.3s-4,9-0.7,12.7
	c0.2,0.3,0.5,0.5,0.7,0.7 M18,18.7c-1.6,1.5-3.8,2.3-6,2.3c-2.2,0-4.3-0.8-6-2.3 M15,9.8c0,1.7-1.3,3-3,3s-3-1.3-3-3s1.3-3,3-3
	S15,8.1,15,9.8z"/>
</svg>
